<?xml version="1.0" standalone="no"?>
<!DOCTYPE svg PUBLIC "-//W3C//DTD SVG 20010904//EN"
 "http://www.w3.org/TR/2001/REC-SVG-20010904/DTD/svg10.dtd">
<svg version="1.0" xmlns="http://www.w3.org/2000/svg"
 width="741.000000pt" height="733.000000pt" viewBox="0 0 741.000000 733.000000"
 preserveAspectRatio="xMidYMid meet">
<metadata>
Created by potrace 1.15, written by Peter Selinger 2001-2017
</metadata>
<g transform="translate(0.000000,733.000000) scale(0.100000,-0.100000)"
fill="#000000" stroke="none">
<path d="M3355 7273 c-506 -71 -952 -222 -1397 -472 -200 -112 -490 -312 -602
-416 -56 -51 -34 -60 59 -24 209 81 556 155 820 175 73 6 117 17 237 60 608
221 1177 288 1748 204 325 -48 637 -147 945 -303 383 -192 660 -410 916 -718
211 -255 359 -484 495 -764 162 -333 259 -672 294 -1024 13 -133 13 -470 0
-602 -46 -459 -215 -981 -431 -1338 -30 -48 -37 -66 -27 -72 12 -8 590 278
614 304 33 35 169 419 217 612 45 180 88 442 88 532 0 21 2 102 5 180 33 773
-279 1659 -822 2338 -205 256 -723 674 -1099 887 -362 205 -716 336 -1120 415
-136 26 -151 27 -525 29 -212 1 -398 0 -415 -3z"/>
<path d="M2825 6472 c6 -5 34 -17 64 -26 78 -25 251 -114 361 -186 247 -162
463 -370 652 -627 80 -109 208 -315 227 -365 11 -30 31 -38 31 -13 0 8 -5 15
-11 15 -8 0 -9 22 -4 75 5 54 3 75 -5 75 -8 0 -9 14 -4 45 4 31 3 45 -5 45 -8
0 -10 11 -5 35 4 24 3 35 -6 35 -8 0 -9 10 -5 30 4 19 3 30 -4 30 -7 0 -9 10
-5 25 4 16 2 25 -6 25 -7 0 -9 8 -5 20 4 12 2 20 -5 20 -7 0 -9 8 -5 20 4 12
2 20 -5 20 -7 0 -9 8 -5 20 4 11 2 20 -4 20 -6 0 -8 7 -5 15 4 8 1 15 -6 15
-6 0 -8 5 -5 10 3 6 2 10 -4 10 -6 0 -8 7 -5 15 4 8 1 15 -6 15 -6 0 -8 5 -5
10 3 6 1 10 -5 10 -6 0 -8 5 -5 10 3 6 1 10 -5 10 -6 0 -9 4 -6 9 3 5 -1 11
-9 15 -8 3 -15 11 -14 18 0 10 2 10 6 0 2 -6 9 -10 14 -6 23 14 445 -141 595
-220 64 -33 101 -48 101 -39 0 7 -15 25 -34 39 -18 14 -31 29 -29 33 6 10
-118 134 -126 126 -3 -4 -18 10 -33 29 -15 20 -31 33 -36 31 -4 -3 -16 6 -25
20 -9 13 -20 22 -25 20 -4 -3 -13 4 -19 15 -6 11 -15 18 -21 15 -5 -4 -12 1
-15 9 -3 9 -10 14 -15 11 -4 -3 -13 4 -19 15 -6 11 -15 18 -21 15 -5 -4 -9 -1
-9 5 0 6 -5 8 -10 5 -6 -3 -13 1 -16 9 -3 9 -10 13 -15 10 -5 -3 -12 2 -15 10
-3 9 -10 13 -15 10 -5 -3 -9 0 -9 6 0 6 -5 8 -10 5 -6 -3 -13 1 -16 9 -3 9
-10 13 -15 10 -5 -3 -9 0 -9 6 0 6 -4 8 -10 5 -5 -3 -10 -1 -10 5 0 6 -4 8
-10 5 -5 -3 -10 -1 -10 5 0 6 -4 8 -10 5 -5 -3 -10 -1 -10 5 0 6 -4 8 -10 5
-5 -3 -10 -1 -10 5 0 6 -4 8 -10 5 -5 -3 -10 -1 -10 5 0 6 -4 8 -10 5 -5 -3
-10 -1 -10 5 0 6 -4 8 -10 5 -5 -3 -10 -1 -10 5 0 6 -4 8 -10 5 -5 -3 -10 -1
-10 5 0 6 -4 8 -10 5 -5 -3 -10 -1 -10 5 0 6 -4 8 -10 5 -5 -3 -10 -1 -10 5 0
7 -7 10 -15 6 -8 -3 -15 -1 -15 5 0 6 -4 7 -10 4 -5 -3 -10 -1 -10 5 0 6 -4 8
-10 5 -5 -3 -10 -1 -10 5 0 7 -7 10 -15 6 -8 -3 -15 -1 -15 4 0 5 -7 7 -15 4
-8 -4 -15 -1 -15 6 0 6 -4 8 -10 5 -5 -3 -10 -1 -10 5 0 7 -7 10 -15 6 -8 -3
-15 -1 -15 5 0 6 -7 9 -15 5 -8 -3 -15 -1 -15 5 0 6 -7 9 -15 5 -8 -3 -15 -1
-15 5 0 6 -9 8 -20 4 -12 -4 -20 -2 -20 5 0 7 -7 10 -15 6 -8 -3 -15 -1 -15 5
0 6 -9 8 -20 4 -12 -4 -20 -2 -20 5 0 7 -8 9 -20 5 -12 -4 -20 -2 -20 5 0 7
-8 9 -20 5 -12 -4 -20 -2 -20 5 0 7 -8 10 -20 7 -11 -3 -20 -1 -20 5 0 6 -11
7 -25 4 -15 -4 -25 -2 -25 5 0 7 -11 8 -30 4 -20 -4 -30 -3 -30 5 0 8 -10 9
-30 5 -20 -4 -30 -3 -30 5 0 8 -12 10 -40 5 -27 -5 -40 -3 -40 5 0 8 -14 9
-45 4 -28 -4 -45 -2 -45 4 0 6 -61 10 -162 11 -92 1 -158 -3 -153 -7z"/>
<path d="M1855 6331 c-188 -42 -322 -89 -481 -169 -183 -92 -393 -246 -508
-373 -27 -30 -61 -68 -77 -85 -16 -17 -29 -35 -29 -40 0 -5 -9 -15 -20 -22
-11 -7 -20 -18 -20 -26 0 -8 -7 -16 -15 -20 -8 -3 -15 -12 -15 -21 0 -8 -4
-15 -10 -15 -5 0 -10 -7 -10 -15 0 -8 -4 -15 -10 -15 -5 0 -10 -7 -10 -15 0
-8 -4 -15 -10 -15 -5 0 -10 -7 -10 -15 0 -8 -4 -15 -10 -15 -5 0 -10 -7 -10
-15 0 -8 -5 -15 -11 -15 -5 0 -7 -4 -4 -10 3 -5 2 -10 -2 -10 -5 0 -10 -13
-11 -30 -2 -28 -1 -29 23 -18 14 6 25 15 25 20 0 4 7 8 15 8 8 0 15 5 15 10 0
6 7 10 15 10 8 0 15 5 15 10 0 6 7 10 15 10 8 0 15 5 15 11 0 5 4 7 10 4 5 -3
10 -1 10 5 0 6 5 8 10 5 6 -3 10 -1 10 5 0 6 5 8 10 5 6 -3 10 -1 10 4 0 6 7
11 15 11 8 0 15 5 15 11 0 5 5 7 10 4 6 -3 10 -1 10 5 0 7 7 10 15 6 8 -3 15
-1 15 5 0 6 4 7 10 4 5 -3 10 -1 10 5 0 6 5 8 10 5 6 -3 10 -1 10 5 0 6 5 8
10 5 6 -3 10 -1 10 5 0 7 7 10 15 6 8 -3 15 -1 15 5 0 6 5 7 10 4 5 -3 10 -1
10 5 0 7 7 10 15 6 8 -3 15 -1 15 5 0 6 7 9 15 5 8 -3 15 -1 15 5 0 6 5 7 10
4 6 -3 10 -1 10 6 0 6 8 9 20 6 11 -3 20 -1 20 5 0 6 7 8 15 4 8 -3 15 -1 15
5 0 6 7 9 15 5 8 -3 15 0 15 5 0 6 9 9 20 6 11 -3 20 -1 20 5 0 6 9 8 20 5 11
-3 20 -1 20 5 0 6 9 8 20 5 11 -3 20 -1 20 5 0 6 11 8 25 6 14 -3 25 -1 25 5
0 5 14 7 30 5 17 -3 30 0 30 5 0 5 16 7 35 5 19 -2 35 0 35 5 0 5 20 7 45 5
25 -2 45 0 45 4 0 12 388 9 498 -3 53 -6 143 -18 200 -28 56 -9 102 -13 102
-8 0 5 11 7 25 5 14 -3 25 -1 25 4 0 6 20 8 45 6 25 -2 45 0 45 4 0 19 226 4
341 -23 l47 -11 -43 -43 c-49 -48 -60 -86 -53 -166 9 -90 86 -157 183 -159 73
-2 90 4 140 51 50 47 69 92 63 150 -2 21 -1 39 2 39 3 0 35 -23 71 -50 154
-116 327 -331 419 -522 39 -80 42 -83 80 -89 22 -3 40 -1 40 4 0 5 23 7 50 5
28 -1 50 1 50 5 0 5 23 7 50 5 28 -1 50 1 50 5 0 5 23 7 50 5 28 -1 50 1 50 5
0 5 10 7 22 5 37 -5 32 24 -21 130 -186 371 -455 723 -726 950 -182 153 -363
257 -572 330 l-108 37 -365 2 c-319 2 -375 0 -445 -16z"/>
<path d="M4260 5597 c0 -132 17 -332 55 -652 13 -110 22 -201 20 -203 -2 -2
-53 -12 -114 -23 -233 -39 -418 -97 -591 -184 -147 -74 -266 -165 -245 -187 3
-3 36 1 73 8 198 38 553 38 902 -2 229 -26 476 -63 518 -77 108 -37 179 -106
218 -211 26 -69 27 -302 2 -391 -12 -39 -14 -63 -7 -70 17 -17 100 37 185 120
66 66 89 97 128 175 78 159 88 217 89 480 0 178 -4 239 -17 290 -51 198 -253
430 -595 684 -215 160 -551 366 -595 366 l-26 0 0 -123z"/>
<path d="M1700 5540 c-523 -26 -993 -270 -1273 -661 -118 -165 -247 -463 -249
-574 0 -22 -5 -43 -12 -47 -8 -6 -7 -8 2 -8 7 0 75 63 150 141 138 143 273
258 404 347 322 217 695 345 1068 367 l115 7 63 -35 c34 -20 62 -34 62 -31 0
2 24 -8 53 -23 28 -15 57 -28 62 -29 6 -1 28 -10 50 -20 22 -10 45 -19 50 -20
6 -1 24 -8 40 -15 17 -7 33 -13 38 -14 4 -2 9 -4 12 -5 3 -1 8 -3 13 -4 4 -1
13 -5 20 -9 6 -5 12 -6 12 -2 0 3 16 -1 35 -9 20 -9 38 -15 40 -16 3 0 6 0 8
-1 1 0 9 -2 17 -4 8 -2 26 -7 40 -10 14 -3 34 -8 45 -10 11 -3 31 -7 45 -11
34 -8 70 -15 100 -19 14 -2 41 -6 60 -10 148 -23 348 -29 486 -16 123 13 250
37 258 50 4 5 -176 266 -199 289 -2 2 -49 -4 -105 -14 -151 -25 -337 -16 -445
20 -44 15 -96 37 -115 49 -19 11 -109 94 -200 182 l-166 162 -168 6 c-182 8
-197 7 -416 -3z"/>
<path d="M1634 4855 c-204 -47 -425 -131 -604 -231 -520 -287 -835 -721 -946
-1300 -22 -115 -27 -178 -31 -361 -5 -201 6 -428 24 -502 5 -19 19 3 78 118
83 161 224 378 346 531 604 755 1459 1256 2502 1465 98 20 182 33 187 30 6 -3
10 -2 10 3 0 5 -53 12 -117 16 -381 22 -789 98 -1141 211 -77 25 -155 45 -173
44 -19 0 -80 -11 -135 -24z"/>
<path d="M3210 4430 c0 -4 -11 -5 -25 -2 -14 2 -25 0 -25 -6 0 -6 -9 -8 -20
-5 -11 3 -20 0 -20 -6 0 -7 -9 -9 -25 -5 -14 3 -25 2 -25 -4 0 -6 -9 -8 -20
-5 -11 3 -20 0 -20 -6 0 -7 -9 -9 -25 -5 -14 3 -25 2 -25 -4 0 -6 -9 -8 -20
-5 -11 3 -20 0 -20 -6 0 -5 -7 -8 -15 -5 -8 4 -15 1 -15 -6 0 -7 -8 -9 -20 -5
-11 3 -20 2 -20 -3 0 -6 -9 -8 -20 -5 -11 3 -20 0 -20 -6 0 -5 -7 -8 -15 -5
-8 4 -15 1 -15 -6 0 -7 -8 -9 -20 -5 -11 4 -20 2 -20 -4 0 -6 -7 -8 -15 -5 -8
4 -15 2 -15 -2 0 -5 -14 -10 -32 -10 -18 -1 -34 -6 -36 -12 -2 -6 -10 -8 -18
-5 -8 3 -14 0 -14 -6 0 -6 -7 -8 -15 -5 -8 4 -15 1 -15 -5 0 -6 -7 -8 -15 -5
-8 4 -15 1 -15 -5 0 -6 -7 -8 -15 -5 -8 4 -15 1 -15 -5 0 -6 -7 -8 -15 -5 -8
4 -15 1 -15 -5 0 -6 -6 -8 -14 -5 -7 3 -20 -1 -27 -9 -8 -7 -20 -12 -27 -9 -6
2 -12 -1 -12 -7 0 -6 -6 -8 -14 -5 -7 3 -20 -1 -27 -9 -8 -7 -20 -12 -27 -9
-6 2 -12 -1 -12 -8 0 -6 -4 -8 -10 -5 -5 3 -10 2 -10 -4 0 -6 -6 -8 -14 -5 -7
3 -20 -2 -29 -10 -8 -8 -17 -12 -21 -9 -3 4 -6 1 -6 -5 0 -6 -7 -9 -15 -6 -8
4 -15 1 -15 -6 0 -6 -4 -8 -10 -5 -5 3 -10 1 -10 -5 0 -6 -4 -8 -10 -5 -5 3
-10 2 -10 -4 0 -6 -6 -8 -14 -5 -7 3 -20 -2 -29 -10 -8 -8 -17 -12 -21 -9 -3
4 -6 1 -6 -6 0 -7 -4 -9 -10 -6 -5 3 -10 1 -10 -5 0 -6 -4 -8 -10 -5 -5 3 -10
1 -10 -5 0 -6 -4 -8 -10 -5 -5 3 -10 1 -10 -5 0 -6 -4 -8 -10 -5 -5 3 -10 1
-10 -5 0 -6 -4 -8 -10 -5 -5 3 -10 1 -10 -5 0 -6 -4 -8 -10 -5 -5 3 -10 1 -10
-5 0 -6 -4 -8 -10 -5 -5 3 -10 1 -10 -5 0 -6 -4 -8 -10 -5 -5 3 -10 1 -10 -5
0 -6 -4 -8 -10 -5 -5 3 -10 1 -10 -5 0 -6 -4 -8 -10 -5 -5 3 -10 1 -10 -5 0
-6 -4 -9 -10 -5 -5 3 -18 -3 -29 -14 -11 -11 -22 -17 -25 -13 -3 3 -6 0 -6 -7
0 -7 -4 -10 -10 -6 -5 3 -18 -3 -29 -14 -11 -11 -22 -17 -25 -13 -3 3 -6 0 -6
-7 0 -7 -5 -9 -10 -6 -6 3 -13 -1 -16 -9 -3 -9 -10 -13 -15 -10 -5 3 -9 0 -9
-6 0 -6 -5 -8 -10 -5 -6 3 -13 -1 -16 -9 -3 -9 -10 -13 -15 -10 -5 3 -12 -2
-15 -10 -3 -9 -10 -13 -15 -10 -5 3 -12 -2 -15 -10 -3 -9 -10 -14 -15 -11 -4
3 -13 -4 -19 -15 -6 -11 -15 -18 -20 -15 -5 3 -15 -4 -23 -15 -7 -11 -16 -17
-20 -14 -3 3 -10 -4 -17 -15 -6 -12 -15 -19 -21 -16 -5 4 -12 -1 -15 -9 -3 -9
-10 -14 -15 -11 -4 3 -16 -6 -25 -20 -9 -13 -20 -22 -25 -20 -4 3 -16 -6 -25
-20 -9 -13 -20 -22 -25 -20 -4 3 -16 -6 -25 -20 -9 -13 -20 -23 -24 -20 -5 3
-22 -13 -40 -35 -17 -22 -34 -39 -38 -37 -9 3 -247 -236 -245 -245 1 -3 -13
-18 -33 -33 -19 -14 -32 -30 -29 -35 3 -4 -7 -15 -20 -24 -14 -9 -23 -21 -20
-26 3 -5 -4 -14 -15 -20 -11 -6 -18 -15 -15 -20 3 -5 -4 -14 -15 -20 -11 -6
-18 -15 -15 -19 3 -5 -2 -12 -11 -15 -8 -3 -13 -10 -10 -15 3 -5 -1 -12 -10
-15 -8 -3 -13 -10 -10 -15 3 -5 -1 -12 -10 -15 -8 -3 -13 -10 -10 -15 3 -5 -1
-12 -10 -15 -8 -3 -12 -10 -9 -16 3 -5 1 -10 -6 -10 -7 0 -10 -3 -6 -6 3 -3
-3 -14 -14 -25 -11 -11 -17 -24 -14 -29 4 -6 1 -10 -5 -10 -6 0 -8 -4 -5 -10
3 -5 1 -10 -5 -10 -6 0 -8 -4 -5 -10 3 -5 1 -10 -5 -10 -6 0 -8 -4 -5 -10 3
-5 1 -10 -5 -10 -6 0 -8 -4 -5 -10 3 -5 1 -10 -5 -10 -6 0 -8 -4 -5 -10 3 -5
1 -10 -5 -10 -6 0 -8 -4 -5 -10 3 -5 1 -10 -6 -10 -7 0 -10 -3 -6 -6 3 -4 -1
-13 -9 -21 -8 -9 -13 -22 -10 -29 3 -8 1 -14 -5 -14 -6 0 -7 -4 -4 -10 3 -5 1
-10 -5 -10 -7 0 -10 -7 -6 -15 3 -8 1 -15 -5 -15 -6 0 -9 -7 -5 -15 3 -8 1
-15 -5 -15 -6 0 -8 -4 -4 -9 3 -5 0 -13 -6 -16 -5 -4 -8 -13 -5 -21 3 -8 1
-14 -5 -14 -6 0 -9 -7 -5 -15 3 -8 1 -15 -5 -15 -6 0 -8 -9 -4 -20 4 -12 2
-20 -5 -20 -7 0 -9 -8 -5 -20 4 -12 2 -20 -5 -20 -7 0 -10 -8 -7 -20 3 -11 1
-20 -5 -20 -6 0 -8 -11 -6 -25 3 -14 1 -28 -4 -31 -5 -4 -7 -22 -3 -40 3 -19
2 -34 -2 -34 -4 0 -8 -70 -8 -155 0 -85 4 -155 8 -155 5 0 6 -13 2 -30 -4 -20
-3 -30 5 -30 6 0 11 -8 10 -18 -3 -27 11 -62 22 -56 5 3 7 12 4 20 -3 8 -1 14
5 14 6 0 9 7 5 15 -3 8 -1 15 5 15 6 0 9 7 5 15 -3 8 -1 15 5 15 6 0 9 7 5 15
-3 8 -1 15 5 15 6 0 9 7 5 15 -3 8 -2 15 3 15 10 0 32 71 25 82 -3 4 0 8 7 8
6 0 9 8 6 20 -3 11 -1 20 5 20 6 0 8 7 4 15 -3 8 -1 15 5 15 6 0 9 7 5 15 -3
8 -1 15 5 15 6 0 9 7 5 15 -3 8 -1 15 4 15 5 0 7 6 4 14 -3 8 0 17 6 21 8 5 9
-10 4 -53 -4 -40 -3 -62 5 -66 7 -5 9 -22 5 -47 -5 -27 -3 -39 5 -39 8 0 10
-11 5 -35 -4 -24 -3 -35 6 -35 8 0 9 -10 5 -30 -4 -20 -3 -30 5 -30 8 0 9 -10
5 -30 -4 -20 -3 -30 5 -30 8 0 10 -9 6 -25 -4 -15 -2 -25 4 -25 6 0 8 -10 4
-25 -4 -16 -2 -25 6 -25 7 0 9 -8 5 -20 -3 -11 -2 -20 3 -20 6 0 8 -9 5 -20
-3 -12 0 -20 7 -20 7 0 10 -8 7 -20 -3 -11 -1 -20 5 -20 6 0 8 -9 5 -20 -3
-11 -1 -20 3 -20 4 0 6 -9 3 -20 -3 -12 0 -20 7 -20 7 0 10 -7 6 -15 -3 -8 0
-15 5 -15 6 0 9 -9 6 -20 -3 -11 -1 -20 5 -20 6 0 8 -7 4 -15 -3 -8 -1 -15 5
-15 6 0 9 -7 5 -15 -3 -8 -1 -15 5 -15 6 0 7 -5 4 -10 -4 -6 -1 -17 5 -25 6
-8 9 -19 5 -25 -3 -5 -2 -10 3 -10 11 0 27 -47 23 -67 -1 -7 3 -13 8 -13 6 0
8 -7 5 -15 -4 -8 -1 -15 6 -15 6 0 10 -6 8 -12 -3 -7 1 -19 9 -26 7 -8 11 -18
7 -23 -3 -5 2 -16 10 -25 9 -9 14 -20 10 -25 -3 -5 2 -16 10 -24 8 -9 13 -22
10 -30 -4 -8 -1 -15 4 -15 11 0 28 -38 24 -52 -1 -5 2 -8 8 -8 5 0 7 -6 5 -12
-8 -21 10 -39 29 -32 16 6 17 19 14 115 -1 60 1 109 6 109 5 0 6 18 3 40 -3
24 -1 40 5 40 6 0 8 11 6 25 -3 14 -1 25 5 25 5 0 7 11 5 25 -3 14 -1 25 4 25
6 0 7 11 4 25 -4 16 -2 25 5 25 6 0 9 7 5 15 -3 8 0 15 5 15 6 0 9 9 6 20 -3
11 -1 20 5 20 6 0 8 7 4 15 -3 8 0 15 5 15 6 0 9 9 6 20 -3 11 -1 20 5 20 5 0
8 6 6 12 -3 7 1 19 8 26 7 7 11 20 8 30 -5 16 -5 15 6 -1 6 -9 9 -21 5 -26 -3
-5 0 -13 6 -16 5 -4 8 -13 5 -21 -3 -8 0 -14 5 -14 6 0 9 -9 6 -20 -3 -11 -1
-20 5 -20 6 0 8 -7 4 -15 -3 -8 -1 -15 5 -15 6 0 9 -7 5 -15 -3 -8 -1 -15 4
-15 5 0 7 -7 4 -15 -4 -8 -1 -15 6 -15 6 0 10 -6 8 -12 -3 -7 1 -19 9 -26 7
-8 10 -18 7 -24 -4 -6 -1 -14 5 -18 7 -4 14 -19 15 -33 2 -14 10 -33 20 -42
15 -15 20 -29 17 -47 0 -5 4 -8 10 -8 5 0 7 -5 4 -10 -3 -6 -1 -10 5 -10 6 0
8 -4 5 -10 -3 -5 -1 -10 6 -10 7 0 10 -3 6 -6 -3 -4 0 -13 8 -21 8 -8 15 -22
15 -31 0 -10 9 -25 20 -35 11 -9 20 -24 20 -32 0 -8 5 -15 10 -15 6 0 10 -7
10 -15 0 -8 5 -15 10 -15 6 0 10 -7 10 -15 0 -8 5 -15 10 -15 6 0 10 -7 10
-15 0 -8 5 -15 10 -15 6 0 10 -7 10 -15 0 -9 7 -18 15 -21 8 -4 15 -13 15 -20
0 -8 7 -17 15 -20 8 -4 15 -12 15 -20 0 -7 11 -21 25 -30 14 -9 25 -20 25 -24
0 -11 239 -250 250 -250 4 0 15 -11 24 -25 9 -14 21 -23 26 -20 5 3 14 -4 20
-15 6 -11 17 -20 24 -20 8 0 16 -7 20 -15 3 -8 12 -15 21 -15 8 0 15 -4 15
-10 0 -5 7 -10 15 -10 8 0 15 -4 15 -10 0 -5 6 -10 14 -10 8 0 16 -4 18 -9 5
-13 48 -24 48 -12 0 6 -5 11 -11 11 -5 0 -7 5 -4 10 3 6 -1 13 -9 16 -9 3 -13
10 -10 15 3 5 -2 12 -10 15 -9 3 -13 10 -10 15 3 5 0 9 -6 9 -6 0 -8 5 -5 10
3 6 -1 13 -9 16 -9 3 -13 10 -10 15 3 5 0 9 -6 9 -6 0 -9 4 -5 10 3 5 -3 18
-14 29 -11 11 -17 22 -14 25 4 3 1 6 -6 6 -7 0 -10 4 -6 9 3 5 -1 16 -9 24 -8
8 -12 17 -9 21 4 3 1 6 -6 6 -7 0 -9 4 -6 10 3 5 1 10 -5 10 -6 0 -8 5 -5 10
3 6 1 10 -5 10 -6 0 -8 5 -5 10 3 6 1 10 -5 10 -6 0 -8 5 -5 10 3 6 2 10 -4
10 -6 0 -8 6 -5 14 3 7 -2 20 -10 29 -8 8 -12 17 -9 21 4 3 1 6 -5 6 -6 0 -9
7 -6 15 4 8 1 15 -6 15 -6 0 -8 5 -5 10 3 6 2 10 -4 10 -6 0 -8 7 -5 15 4 8 1
15 -5 15 -6 0 -8 7 -5 15 4 8 1 15 -5 15 -6 0 -8 7 -5 15 4 8 1 15 -5 15 -6 0
-8 7 -5 15 4 8 1 15 -5 15 -6 0 -8 7 -5 15 4 8 2 15 -4 15 -6 0 -8 9 -5 20 3
11 0 20 -6 20 -5 0 -8 7 -5 15 4 8 1 15 -6 15 -7 0 -9 8 -5 20 4 12 2 20 -5
20 -6 0 -8 10 -4 25 3 14 2 25 -4 25 -5 0 -7 11 -4 25 2 14 0 25 -5 25 -5 0
-8 14 -5 30 2 16 0 30 -5 30 -5 0 -7 16 -5 35 2 19 0 35 -6 35 -5 0 -7 19 -4
45 2 25 1 45 -4 45 -5 0 -9 83 -9 185 0 102 4 185 9 185 5 0 6 23 4 50 -3 29
-1 50 5 50 5 0 7 15 4 35 -4 21 -2 35 5 35 6 0 8 13 6 30 -3 17 0 30 5 30 5 0
7 13 4 30 -4 19 -2 30 4 30 7 0 9 10 5 25 -4 16 -2 25 5 25 6 0 9 9 6 20 -3
11 -1 20 5 20 6 0 8 9 5 20 -3 11 -1 20 5 20 6 0 8 9 5 20 -3 11 -1 20 5 20 6
0 8 9 5 20 -3 11 -1 20 5 20 6 0 8 7 4 15 -3 8 -1 15 5 15 6 0 9 7 5 15 -3 8
0 15 5 15 6 0 9 9 6 20 -3 11 -1 20 5 20 6 0 8 7 4 15 -3 8 -1 15 5 15 6 0 9
7 5 15 -3 8 -1 15 5 15 6 0 7 5 4 10 -3 6 -1 10 5 10 7 0 10 7 6 15 -3 8 -1
15 5 15 6 0 9 6 7 12 -3 7 2 19 9 27 8 7 12 18 10 25 -2 6 3 17 10 25 8 7 12
20 9 27 -3 8 0 14 6 14 6 0 9 3 5 6 -3 4 1 13 9 21 8 9 13 22 10 29 -3 8 -1
14 5 14 6 0 7 5 4 10 -3 6 -1 10 5 10 6 0 8 5 5 10 -3 6 -1 10 5 10 6 0 8 5 5
10 -3 6 -1 10 5 10 6 0 8 5 5 10 -3 6 -1 10 5 10 6 0 8 5 5 10 -3 6 -1 10 5
10 6 0 8 5 5 10 -3 6 -1 10 5 10 6 0 8 5 5 10 -3 6 -1 10 5 10 6 0 8 5 5 10
-3 6 -1 10 5 10 6 0 8 5 5 10 -3 6 -1 10 6 10 7 0 10 3 6 6 -3 3 3 14 14 25
11 11 17 24 14 29 -4 6 -1 10 5 10 6 0 9 4 6 9 -3 5 1 12 10 15 8 3 12 10 9
16 -3 5 1 10 9 10 10 0 13 -6 10 -15 -4 -8 -1 -15 5 -15 6 0 8 -7 5 -15 -4 -8
-1 -15 5 -15 6 0 8 -7 5 -15 -4 -8 -1 -15 6 -15 6 0 8 -5 5 -10 -3 -6 1 -17 9
-25 8 -9 13 -22 10 -30 -4 -8 -2 -15 4 -15 5 0 22 -28 37 -62 15 -35 34 -67
41 -71 8 -4 14 -14 14 -21 0 -8 7 -19 16 -27 21 -17 36 5 30 44 -3 16 -1 27 6
27 7 0 9 14 5 40 -3 24 -1 40 5 40 6 0 8 12 5 30 -4 19 -2 30 5 30 6 0 8 11 5
30 -4 19 -2 30 4 30 7 0 9 10 5 25 -4 16 -2 25 5 25 6 0 9 9 6 20 -3 11 -1 20
5 20 6 0 8 9 5 20 -3 11 -1 20 5 20 6 0 7 11 4 25 -4 16 -2 25 5 25 6 0 9 7 5
15 -3 8 0 15 5 15 6 0 9 9 6 20 -3 11 -1 20 5 20 6 0 8 7 4 15 -3 8 -1 15 5
15 6 0 9 7 5 15 -3 8 0 15 5 15 6 0 9 9 6 20 -3 11 -1 20 5 20 5 0 8 6 6 12
-3 7 2 19 9 27 8 7 12 20 9 27 -3 8 -1 14 5 14 6 0 9 6 7 12 -3 7 2 19 9 27 8
7 12 18 10 25 -2 6 3 17 10 25 8 7 12 20 9 27 -3 8 0 14 6 14 6 0 9 3 5 6 -3
4 1 13 9 21 8 9 13 22 10 29 -3 8 -1 14 5 14 6 0 7 5 4 10 -3 6 -1 10 5 10 6
0 8 5 5 10 -3 6 -1 10 5 10 6 0 8 5 5 10 -3 6 -1 10 5 10 6 0 8 5 5 10 -3 6
-1 10 5 10 6 0 8 5 5 10 -3 6 -1 10 5 10 6 0 8 5 5 10 -3 6 -1 10 6 10 7 0 10
3 6 6 -3 3 3 14 14 25 11 11 17 24 14 29 -4 6 -1 10 5 10 6 0 9 4 6 9 -3 5 1
12 10 15 8 3 12 10 9 16 -3 5 -1 10 5 10 6 0 9 4 6 9 -3 5 1 12 10 15 8 3 13
10 10 15 -3 5 1 12 10 15 8 3 13 10 10 15 -3 5 1 12 10 15 8 3 13 10 10 15 -3
5 1 12 10 15 8 3 13 10 10 15 -3 5 1 12 10 15 9 4 14 9 11 12 -3 4 4 15 16 25
12 10 18 18 13 19 -4 0 2 9 15 20 13 10 20 19 14 20 -5 0 1 7 13 16 12 8 20
19 17 24 -3 4 11 20 30 34 19 15 34 30 33 34 -3 9 195 207 204 204 4 -1 17 11
29 28 12 16 26 27 30 24 4 -2 15 6 23 18 9 12 16 18 16 13 1 -6 9 0 20 13 10
13 22 22 27 22 4 -1 9 3 11 8 2 6 -20 10 -52 10 -31 0 -56 -4 -56 -8z"/>
<path d="M3701 4184 c-249 -82 -435 -196 -617 -378 -347 -347 -523 -826 -541
-1468 -3 -120 -8 -218 -11 -218 -15 0 -154 124 -267 239 -71 72 -132 127 -136
123 -10 -10 -56 -215 -80 -355 -30 -169 -38 -580 -15 -712 40 -234 134 -480
251 -657 85 -128 264 -309 385 -389 214 -143 458 -234 729 -274 58 -9 116 -18
128 -21 12 -3 29 -2 38 3 21 12 15 17 -105 83 -254 140 -440 292 -565 461 -74
100 -71 104 22 34 168 -124 440 -239 677 -284 382 -74 867 -74 1241 0 356 70
696 204 968 381 146 96 144 107 -16 71 -183 -41 -337 -56 -567 -56 -248 0
-412 17 -666 68 -486 99 -805 244 -1057 484 -313 299 -464 728 -420 1194 l6
69 28 -49 c46 -80 138 -182 234 -260 104 -84 289 -197 310 -190 11 5 4 27 -30
105 -88 199 -152 432 -176 636 -18 153 -6 413 25 562 61 289 200 582 368 777
l49 57 -43 0 c-24 -1 -90 -17 -147 -36z"/>
<path d="M4157 4102 c-10 -10 -15 -21 -12 -24 3 -3 -6 -13 -20 -22 -14 -9 -23
-21 -20 -26 3 -5 -4 -14 -15 -20 -11 -6 -18 -15 -15 -20 3 -5 -4 -14 -15 -20
-11 -6 -18 -15 -15 -19 3 -5 -2 -12 -11 -15 -8 -3 -12 -10 -9 -16 3 -5 1 -10
-5 -10 -6 0 -8 -5 -5 -10 3 -6 -1 -13 -9 -16 -9 -3 -14 -10 -11 -14 3 -4 -2
-11 -11 -14 -8 -3 -12 -10 -9 -16 3 -5 1 -10 -5 -10 -6 0 -8 -4 -5 -10 3 -5 1
-10 -5 -10 -6 0 -8 -4 -5 -10 3 -5 1 -10 -5 -10 -6 0 -8 -4 -5 -10 3 -5 1 -10
-5 -10 -6 0 -8 -4 -5 -10 3 -5 1 -10 -5 -10 -6 0 -8 -4 -5 -10 3 -5 1 -10 -5
-10 -6 0 -8 -4 -5 -10 3 -5 1 -10 -5 -10 -6 0 -8 -4 -5 -10 3 -5 1 -10 -4 -10
-6 0 -10 -3 -9 -7 1 -5 -3 -18 -10 -29 -6 -12 -8 -24 -5 -28 3 -3 1 -6 -5 -6
-7 0 -11 -3 -11 -7 1 -5 0 -11 -1 -15 -1 -5 -4 -12 -5 -18 -1 -5 -4 -12 -5
-15 -1 -3 -4 -9 -5 -15 -1 -5 -3 -11 -5 -12 -1 -2 -3 -11 -6 -20 -2 -10 -6
-26 -8 -35 -3 -10 -5 -18 -6 -18 -1 0 -3 -9 -5 -20 -2 -11 -6 -33 -10 -50 -13
-67 -17 -307 -5 -386 42 -292 245 -620 476 -769 290 -188 641 -284 963 -265
118 7 153 11 206 21 17 3 37 6 45 8 9 1 21 5 28 10 6 4 16 5 21 1 5 -3 13 0
16 6 4 5 13 8 21 5 7 -3 16 -1 19 5 4 5 10 7 15 4 5 -3 11 -1 15 5 4 6 10 8
15 5 5 -3 11 -1 15 5 4 6 10 8 15 5 5 -3 11 -1 15 5 4 6 11 8 16 5 5 -4 9 -1
9 5 0 7 7 10 15 6 8 -3 15 -1 15 5 0 6 5 7 10 4 6 -3 10 -1 10 5 0 6 4 9 9 5
5 -3 12 -1 16 5 4 6 11 8 16 5 5 -4 9 -1 9 5 0 6 5 8 10 5 6 -3 10 -1 10 5 0
6 5 8 10 5 6 -3 10 -1 10 5 0 6 5 8 10 5 6 -3 10 -1 10 5 0 6 5 8 10 5 6 -3
10 -1 10 5 0 6 5 8 10 5 6 -3 10 -1 10 5 0 6 5 8 10 5 6 -3 10 -1 10 5 0 6 5
8 10 5 6 -3 13 1 16 9 3 9 10 13 15 10 5 -3 9 0 9 6 0 6 4 9 9 6 5 -3 12 1 15
10 3 8 10 12 16 9 5 -3 10 -1 10 5 0 6 5 8 10 5 6 -3 13 1 16 9 3 9 10 13 15
10 5 -3 12 2 15 10 3 9 10 14 15 11 4 -3 13 4 19 15 6 11 15 18 20 15 5 -3 14
4 20 15 6 11 15 18 20 15 5 -3 14 4 20 15 6 11 15 18 19 15 5 -2 16 6 25 20 9
14 20 24 25 22 5 -1 26 17 48 40 28 30 34 41 21 40 -10 -1 -18 -5 -18 -10 0
-4 -4 -5 -10 -2 -5 3 -10 1 -10 -5 0 -6 -4 -8 -10 -5 -5 3 -10 1 -10 -5 0 -6
-4 -8 -10 -5 -5 3 -10 1 -10 -5 0 -6 -4 -8 -10 -5 -5 3 -10 1 -10 -5 0 -7 -7
-10 -15 -6 -8 3 -15 1 -15 -4 0 -5 -7 -7 -15 -4 -8 4 -15 1 -15 -6 0 -6 -4 -8
-10 -5 -5 3 -10 2 -10 -4 0 -6 -7 -8 -15 -5 -8 4 -15 1 -15 -6 0 -7 -7 -10
-15 -6 -8 3 -15 1 -15 -5 0 -6 -9 -8 -20 -4 -11 4 -20 2 -20 -4 0 -6 -7 -8
-15 -5 -8 4 -15 1 -15 -6 0 -7 -8 -9 -20 -5 -12 4 -20 2 -20 -5 0 -6 -10 -8
-25 -4 -16 4 -25 2 -25 -5 0 -7 -9 -9 -25 -5 -16 4 -25 2 -25 -5 0 -8 -11 -10
-35 -5 -23 4 -35 2 -35 -5 0 -8 -15 -10 -50 -5 -34 5 -50 3 -50 -5 0 -7 -29
-11 -85 -11 -56 0 -85 4 -85 11 0 8 -16 10 -50 5 -35 -5 -50 -3 -50 5 0 7 -10
9 -30 6 -19 -4 -30 -2 -30 4 0 7 -10 9 -25 5 -16 -4 -25 -2 -25 5 0 6 -9 9
-20 6 -11 -3 -20 -1 -20 5 0 6 -9 8 -20 5 -11 -3 -20 -1 -20 5 0 6 -7 8 -15 4
-8 -3 -15 -1 -15 5 0 6 -9 8 -20 4 -12 -4 -20 -2 -20 5 0 6 -4 8 -10 5 -5 -3
-10 -1 -10 5 0 7 -7 10 -15 6 -8 -3 -15 -1 -15 5 0 6 -7 9 -15 5 -8 -3 -15 -1
-15 5 0 6 -4 7 -10 4 -5 -3 -10 -1 -10 5 0 6 -4 8 -10 5 -5 -3 -10 -1 -10 5 0
7 -7 10 -15 6 -8 -3 -15 -1 -15 5 0 6 -4 7 -10 4 -5 -3 -10 -1 -10 5 0 6 -4 8
-10 5 -5 -3 -10 -1 -10 5 0 6 -4 8 -10 5 -5 -3 -10 -1 -10 5 0 6 -5 8 -10 5
-6 -3 -13 1 -16 9 -3 9 -10 13 -15 10 -5 -3 -9 0 -9 6 0 6 -4 9 -9 6 -5 -3
-12 1 -15 10 -3 8 -10 12 -16 9 -5 -3 -10 -1 -10 5 0 6 -5 8 -10 5 -6 -3 -13
1 -16 9 -3 9 -10 14 -15 11 -4 -3 -13 4 -19 15 -6 11 -15 18 -20 15 -5 -3 -14
4 -20 15 -6 11 -15 18 -19 15 -5 -2 -16 7 -25 20 -9 14 -21 23 -25 21 -4 -3
-23 13 -40 34 -18 22 -36 38 -40 36 -10 -6 -104 88 -96 96 4 3 -12 21 -34 38
-22 18 -38 36 -36 41 3 4 -8 17 -25 29 -17 12 -28 25 -25 30 3 5 -4 14 -15 20
-11 6 -18 15 -15 21 4 5 -1 12 -9 15 -9 3 -13 10 -10 15 3 5 0 9 -6 9 -6 0 -8
5 -5 10 3 6 -1 13 -9 16 -9 3 -13 10 -10 15 3 5 0 9 -6 9 -6 0 -8 5 -5 10 3 6
1 10 -5 10 -6 0 -8 5 -5 10 3 6 1 10 -5 10 -6 0 -8 5 -5 10 3 6 2 10 -4 10 -6
0 -8 7 -5 15 4 8 1 15 -6 15 -6 0 -8 5 -5 10 3 6 2 10 -4 10 -6 0 -8 7 -5 15
4 8 1 15 -5 15 -6 0 -8 7 -5 15 4 8 1 15 -5 15 -6 0 -8 7 -5 15 4 8 1 15 -5
15 -6 0 -8 7 -5 15 4 8 1 15 -5 15 -6 0 -8 7 -5 15 4 8 1 15 -6 15 -7 0 -9 8
-5 20 4 12 2 20 -5 20 -6 0 -8 10 -4 25 4 16 2 25 -5 25 -7 0 -9 9 -5 25 4 16
2 25 -5 25 -8 0 -10 11 -5 35 4 23 2 35 -5 35 -8 0 -10 15 -5 50 5 34 3 50 -5
50 -8 0 -11 40 -11 130 0 89 4 130 11 130 8 0 9 17 4 55 -5 40 -3 55 5 55 8 0
10 11 6 34 -5 23 -3 36 6 39 7 3 4 6 -8 6 -11 1 -28 -7 -37 -17z"/>
<path d="M3307 1996 c-8 -21 19 -108 55 -181 152 -302 508 -534 983 -639 299
-67 805 -103 1072 -77 357 34 733 178 1023 391 158 116 437 425 415 460 -3 6
-45 -10 -98 -36 -193 -98 -466 -189 -722 -243 -686 -145 -1377 -82 -2042 184
-75 31 -140 52 -145 47 -11 -11 111 -189 180 -263 l53 -58 -68 19 c-194 54
-431 185 -613 339 -89 75 -87 74 -93 57z"/>
</g>
</svg>
